<svg width="72" height="72" viewBox="0 0 72 72" fill="none" xmlns="http://www.w3.org/2000/svg">
<g clip-path="url(#clip0_14046_776)">
<path d="M45.0002 27H27.0002C25.3352 27 24.0002 28.35 24.0002 30V66C24.0002 67.65 25.3352 69 27.0002 69H45.0002C46.6652 69 48.0002 67.65 48.0002 66V30C48.0002 28.35 46.6652 27 45.0002 27ZM36.0002 45C32.6852 45 30.0002 42.315 30.0002 39C30.0002 35.685 32.6852 33 36.0002 33C39.3152 33 42.0002 35.685 42.0002 39C42.0002 42.315 39.3152 45 36.0002 45ZM21.1502 18.15L25.3952 22.395C28.1102 19.68 31.8602 18 36.0002 18C40.1402 18 43.8902 19.68 46.6052 22.395L50.8502 18.15C47.0552 14.355 41.8052 12 36.0002 12C30.1952 12 24.9452 14.355 21.1502 18.15ZM36.0002 0C26.8952 0 18.6452 3.69 12.6602 9.66L16.9052 13.905C21.7952 9.015 28.5452 6 36.0002 6C43.4552 6 50.2052 9.015 55.0952 13.905L59.3402 9.66C53.3552 3.69 45.1052 0 36.0002 0Z" fill="black"/>
</g>
<defs>
<clipPath id="clip0_14046_776">
<rect width="72" height="72" fill="white"/>
</clipPath>
</defs>
</svg>
