<svg width="72" height="72" viewBox="0 0 72 72" fill="none" xmlns="http://www.w3.org/2000/svg">
<g clip-path="url(#clip0_14046_755)">
<path d="M62.7844 49.763L57.6694 54.878L53.7319 54.2825C53.7319 54.2825 53.1394 50.2955 53.1244 50.312L58.2289 45.209C57.0799 44.69 55.8109 44.3945 54.4714 44.3945C49.4284 44.3945 45.3409 48.482 45.3409 53.522C45.3409 54.8645 45.6379 56.132 46.1569 57.2795L44.4004 59.0375C44.8564 59.9045 46.3264 62.342 48.9409 63.6095L50.7139 61.8365C51.8614 62.3555 53.1289 62.651 54.4714 62.651C59.5114 62.651 63.5989 58.5635 63.5989 53.522C63.5989 52.181 63.3034 50.909 62.7844 49.763Z" fill="#241F20"/>
<path d="M40.2633 13.252H10.7373V18.6205H40.2633V13.252Z" fill="#241F20"/>
<path d="M40.2633 24.2402H10.7373V29.6087H40.2633V24.2402Z" fill="#241F20"/>
<path d="M54 36C44.0595 36 36 44.0595 36 54C36 63.9405 44.0595 72 54 72C63.9405 72 72 63.9405 72 54C72 44.0595 63.9405 36 54 36ZM54 67.416C46.5435 67.416 40.5 61.3725 40.5 53.916C40.5 46.4595 46.5435 40.416 54 40.416C61.4565 40.416 67.5 46.4595 67.5 53.916C67.5 61.3725 61.4565 67.416 54 67.416Z" fill="#241F20"/>
<path d="M5.3685 59.052V5.3685H45.6315V33.126C47.328 32.445 49.128 31.9725 51 31.722V0H0V64.4205H34.0695C33.192 62.745 32.5245 60.9435 32.091 59.052H5.3685Z" fill="#241F20"/>
<path d="M10.7373 51.0833H31.7103C31.9533 49.2113 32.4213 47.4128 33.0948 45.7148H10.7373V51.0833Z" fill="#241F20"/>
<path d="M40.2633 36.209V34.8965H10.7373V40.265H36.2088C37.3833 38.744 38.7438 37.3835 40.2633 36.209Z" fill="#241F20"/>
</g>
<defs>
<clipPath id="clip0_14046_755">
<rect width="72" height="72" fill="white"/>
</clipPath>
</defs>
</svg>
