<svg width="72" height="72" viewBox="0 0 72 72" fill="none" xmlns="http://www.w3.org/2000/svg">
<path d="M33.5086 12.3582C34.3873 11.4795 35.8119 11.4795 36.6906 12.3582L62.7586 38.4262C63.6373 39.3049 65.0619 39.3049 65.9406 38.4262C66.8193 37.5476 66.8193 36.1229 65.9406 35.2443L39.8726 9.17625C37.2365 6.54021 32.9627 6.54021 30.3266 9.17625L4.25862 35.2443C3.37994 36.1229 3.37994 37.5476 4.25862 38.4262C5.1373 39.3049 6.56192 39.3049 7.4406 38.4262L33.5086 12.3582Z" fill="#0B60FE"/>
<path d="M35.0996 17.1312L59.5766 41.6082C59.6658 41.6974 59.7568 41.7835 59.8496 41.8667V60.4602C59.8496 63.5668 57.3312 66.0852 54.2246 66.0852H44.0996C42.857 66.0852 41.8496 65.0779 41.8496 63.8352V50.3352C41.8496 49.0926 40.8422 48.0852 39.5996 48.0852H30.5996C29.357 48.0852 28.3496 49.0926 28.3496 50.3352V63.8352C28.3496 65.0779 27.3422 66.0852 26.0996 66.0852H15.9746C12.868 66.0852 10.3496 63.5669 10.3496 60.4602V41.8667C10.4424 41.7835 10.5334 41.6974 10.6226 41.6082L35.0996 17.1312Z" fill="#0B60FE"/>
</svg>
