<svg width="72" height="72" viewBox="0 0 72 72" fill="none" xmlns="http://www.w3.org/2000/svg">
<path d="M41.6204 4.5C39.1466 4.5 37.116 6.53063 37.116 9.0044C37.116 11.4782 39.1466 13.5088 41.6204 13.5088C44.0941 13.5088 46.1248 11.4782 46.1248 9.0044C46.1248 6.53063 44.0941 4.5 41.6204 4.5ZM41.6204 7.88159C42.237 7.88159 42.7432 8.38776 42.7432 9.0044C42.7432 9.62102 42.237 10.1272 41.6204 10.1272C41.0037 10.1272 40.4976 9.62102 40.4976 9.0044C40.4976 8.38776 41.0037 7.88159 41.6204 7.88159ZM34.8791 8.64624L27.2964 13.0254C29.1071 13.9615 30.3704 15.8302 30.3704 17.9956C30.3704 18.3762 30.3317 18.7472 30.2583 19.1074L37.9619 14.6602C36.1052 13.4515 34.8616 11.3638 34.8616 9.0044C34.8616 8.88343 34.8727 8.76572 34.8791 8.64624ZM48.3022 9.93164C47.9011 12.7928 45.6849 15.1016 42.8662 15.6357L47.3662 20.1357C47.4328 19.7845 47.5303 19.4444 47.6496 19.114C47.8892 18.4512 48.2281 17.8361 48.6516 17.2859C49.2864 16.4612 50.1042 15.7874 51.0444 15.3237C51.6722 15.0141 52.3522 14.8003 53.0681 14.6997L48.3022 9.93164ZM24.7454 14.625C22.8894 14.625 21.366 16.1419 21.366 17.9978C21.366 19.8537 22.8894 21.3772 24.7454 21.3772C26.6013 21.3772 28.1248 19.8537 28.1248 17.9978C28.1248 16.1419 26.6013 14.625 24.7454 14.625ZM24.7454 16.8728C25.3656 16.8728 25.8748 17.3797 25.8748 18C25.8748 18.6202 25.3656 19.1294 24.7454 19.1294C24.1251 19.1294 23.616 18.6202 23.616 18C23.616 17.3797 24.1251 16.8728 24.7454 16.8728ZM53.9954 16.8751C51.5187 16.8751 49.4954 18.9006 49.4954 21.3772C49.4954 23.8539 51.5187 25.8772 53.9954 25.8773C56.472 25.8772 58.5063 23.8539 58.5063 21.3772C58.5063 18.9006 56.472 16.8751 53.9954 16.8751ZM30.0254 19.8611C29.6319 20.9616 28.9204 21.9098 27.9819 22.577L29.2476 23.3086V28.125C29.2476 29.0599 30.0002 29.8125 30.9351 29.8125C31.8699 29.8125 32.6226 29.0599 32.6226 28.125V22.3264C32.6226 21.7744 32.389 21.2269 31.7283 20.8455L30.0254 19.8611ZM19.4675 19.8654L17.7668 20.8476C17.1061 21.229 16.8726 21.7743 16.8726 22.3264V28.125C16.8726 29.0598 17.6252 29.8125 18.5601 29.8125C19.4949 29.8125 20.2476 29.0598 20.2476 28.125V23.3085L21.5132 22.5768C20.5746 21.9103 19.8618 20.9651 19.4675 19.8654ZM53.9998 20.2521C54.1475 20.2521 54.2938 20.2812 54.4303 20.3378C54.5668 20.3943 54.6908 20.4772 54.7952 20.5817C54.8997 20.6861 54.9826 20.8101 55.0391 20.9466C55.0957 21.0831 55.1248 21.2294 55.1248 21.3771C55.1248 21.5249 55.0957 21.6712 55.0391 21.8077C54.9826 21.9442 54.8997 22.0682 54.7953 22.1726C54.6908 22.2771 54.5668 22.36 54.4303 22.4165C54.2938 22.4731 54.1475 22.5021 53.9998 22.5021C53.852 22.5021 53.7057 22.4731 53.5692 22.4165C53.4327 22.36 53.3087 22.2771 53.2043 22.1726C53.0998 22.0682 53.0169 21.9442 52.9604 21.8077C52.9039 21.6712 52.8748 21.5249 52.8748 21.3771C52.8748 21.0788 52.9933 20.7926 53.2043 20.5817C53.4152 20.3707 53.7014 20.2521 53.9998 20.2521ZM48.2078 24.8203L45.4216 30.3815H45.002C44.9654 30.379 44.9266 30.376 44.8899 30.3772C44.8888 30.3778 44.8864 30.3811 44.8854 30.3815C44.31 30.4392 43.8719 30.9238 43.8725 31.5021V37.1271H55.1269V31.5021C55.1252 31.105 54.9045 30.7739 54.5929 30.5749L55.9618 27.8327C55.658 27.9262 55.3433 27.9917 55.0236 28.0414C55.0113 28.0433 54.9989 28.0461 54.9862 28.0482C54.6619 28.0968 54.3319 28.1295 53.9952 28.1295C53.7004 28.1295 53.4126 28.1031 53.1273 28.0657C53.0924 28.061 53.0585 28.0555 53.024 28.0504C52.7746 28.0139 52.5303 27.9625 52.2901 27.8988C52.2544 27.8895 52.218 27.8827 52.1825 27.8725C51.6386 27.7185 51.1225 27.4984 50.6422 27.2199C50.6252 27.2101 50.6086 27.199 50.5917 27.1892C50.3561 27.0499 50.1313 26.896 49.9149 26.73C49.2333 26.207 48.6514 25.5593 48.2078 24.8203ZM16.8748 33.7521C16.25 33.7498 15.743 34.2568 15.7454 34.8815V45.0021C15.743 45.6269 16.25 46.1339 16.8748 46.1315H28.127C28.7482 46.129 29.2499 45.6234 29.2476 45.0021V34.8814C29.2499 34.2601 28.7482 33.7545 28.127 33.7521H23.627V37.1314H21.377V33.7521L16.8748 33.7521ZM38.2541 39.3815C37.6321 39.3778 37.1273 39.8799 37.1248 40.5021V46.1271H60.7476C61.1318 46.1271 61.5048 46.1658 61.8748 46.2194V40.5021C61.8723 39.8807 61.3688 39.379 60.7476 39.3815L38.2541 39.3815ZM11.252 48.3836C7.53191 48.3836 4.50195 51.407 4.50195 55.127C4.50195 58.8471 7.53191 61.877 11.252 61.877H60.7476C64.4676 61.877 67.4976 58.8471 67.4976 55.127C67.4976 51.407 64.4676 48.3836 60.7476 48.3836H11.252ZM11.252 51.7564C13.0893 51.7564 14.6248 53.2919 14.6248 55.1292C14.6248 56.9665 13.0893 58.5086 11.252 58.5086C9.41465 58.5086 7.87256 56.9666 7.87256 55.1292C7.87256 53.2919 9.41465 51.7564 11.252 51.7564ZM23.627 51.7564C25.4643 51.7564 26.9976 53.2919 26.9976 55.1292C26.9976 56.9665 25.4643 58.5086 23.627 58.5086C21.7896 58.5086 20.2454 56.9665 20.2454 55.1292C20.2454 53.2919 21.7896 51.7564 23.627 51.7564ZM35.9998 51.7564C37.8371 51.7564 39.3726 53.2919 39.3726 55.1292C39.3726 56.9665 37.8371 58.5086 35.9998 58.5086C34.1624 58.5086 32.6292 56.9665 32.6291 55.1292C32.6292 53.2919 34.1624 51.7564 35.9998 51.7564ZM48.3748 51.7564C50.2121 51.7564 51.7454 53.2919 51.7454 55.1292C51.7454 56.9665 50.2121 58.5086 48.3748 58.5086C46.5374 58.5086 45.002 56.9665 45.0019 55.1292C45.002 53.2919 46.5374 51.7564 48.3748 51.7564ZM60.7476 51.7564C62.5849 51.7564 64.1292 53.2919 64.1292 55.1292C64.1292 56.9666 62.5849 58.5086 60.7476 58.5086C58.9103 58.5086 57.377 56.9665 57.377 55.1292C57.377 53.2919 58.9103 51.7564 60.7476 51.7564ZM11.252 54.0086C10.6573 54.0086 10.1226 54.5346 10.1226 55.1292C10.1226 55.7239 10.6573 56.2586 11.252 56.2586C11.8466 56.2586 12.3726 55.7239 12.3726 55.1292C12.3726 54.5346 11.8466 54.0086 11.252 54.0086ZM23.627 54.0086C23.0323 54.0086 22.4976 54.5346 22.4976 55.1292C22.4976 55.7239 23.0323 56.2586 23.627 56.2586C24.2216 56.2586 24.7476 55.7239 24.7476 55.1292C24.7476 54.5346 24.2216 54.0086 23.627 54.0086ZM35.9998 54.0086C35.4051 54.0086 34.8704 54.5346 34.8704 55.1292C34.8704 55.7239 35.4051 56.2586 35.9998 56.2586C36.5944 56.2586 37.1204 55.7239 37.1204 55.1292C37.1204 54.5346 36.5944 54.0086 35.9998 54.0086ZM48.3748 54.0086C47.7801 54.0086 47.2542 54.5346 47.2542 55.1292C47.2542 55.7239 47.7801 56.2586 48.3748 56.2586C48.9694 56.2586 49.5041 55.7239 49.5041 55.1292C49.5041 54.5346 48.9694 54.0086 48.3748 54.0086ZM60.7476 54.0086C60.1529 54.0086 59.627 54.5346 59.627 55.1292C59.627 55.7239 60.1529 56.2586 60.7476 56.2586C61.3422 56.2586 61.8769 55.7239 61.8769 55.1292C61.8769 54.5346 61.3422 54.0086 60.7476 54.0086ZM61.8748 64.0348C61.5047 64.0886 61.1318 64.1217 60.7476 64.127H37.1248V66.3792C37.1272 67.0015 37.6321 67.5035 38.2541 67.4998H60.7476C61.3688 67.5023 61.8722 67.0006 61.8748 66.3792V64.0348Z" fill="black"/>
</svg>
