<svg width="72" height="72" viewBox="0 0 72 72" fill="none" xmlns="http://www.w3.org/2000/svg">
<path fill-rule="evenodd" clip-rule="evenodd" d="M12.375 9C9.2684 9 6.75 11.5184 6.75 14.625V54C6.75 58.9706 10.7794 63 15.75 63H60.75C55.7794 63 51.75 58.9706 51.75 54V14.625C51.75 11.5184 49.2316 9 46.125 9H12.375ZM36 29.25C34.7574 29.25 33.75 30.2574 33.75 31.5C33.75 32.7426 34.7574 33.75 36 33.75H40.5C41.7426 33.75 42.75 32.7426 42.75 31.5C42.75 30.2574 41.7426 29.25 40.5 29.25H36ZM33.75 22.5C33.75 21.2574 34.7574 20.25 36 20.25H40.5C41.7426 20.25 42.75 21.2574 42.75 22.5C42.75 23.7426 41.7426 24.75 40.5 24.75H36C34.7574 24.75 33.75 23.7426 33.75 22.5ZM18 38.25C16.7574 38.25 15.75 39.2574 15.75 40.5C15.75 41.7426 16.7574 42.75 18 42.75H40.5C41.7426 42.75 42.75 41.7426 42.75 40.5C42.75 39.2574 41.7426 38.25 40.5 38.25H18ZM15.75 49.5C15.75 48.2574 16.7574 47.25 18 47.25H40.5C41.7426 47.25 42.75 48.2574 42.75 49.5C42.75 50.7426 41.7426 51.75 40.5 51.75H18C16.7574 51.75 15.75 50.7426 15.75 49.5ZM18 20.25C16.7574 20.25 15.75 21.2574 15.75 22.5V31.5C15.75 32.7426 16.7574 33.75 18 33.75H27C28.2426 33.75 29.25 32.7426 29.25 31.5V22.5C29.25 21.2574 28.2426 20.25 27 20.25H18Z" fill="#0B60FE"/>
<path d="M56.25 20.25H61.875C63.739 20.25 65.25 21.761 65.25 23.625V54C65.25 56.4853 63.2353 58.5 60.75 58.5C58.2647 58.5 56.25 56.4853 56.25 54V20.25Z" fill="#0B60FE"/>
</svg>
