<svg width="32" height="33" viewBox="0 0 32 33" fill="none" xmlns="http://www.w3.org/2000/svg">
<path fill-rule="evenodd" clip-rule="evenodd" d="M2 6.5C2 4.29086 3.79086 2.5 6 2.5H7.82884C8.976 2.5 9.97596 3.28074 10.2542 4.39366L11.7286 10.2912C11.9725 11.2671 11.6079 12.2941 10.8032 12.8976L9.0784 14.1912C8.89929 14.3255 8.86036 14.5222 8.91067 14.6596C10.4247 18.7926 13.7074 22.0753 17.8404 23.5893C17.9778 23.6396 18.1745 23.6007 18.3088 23.4216L19.6024 21.6968C20.2059 20.8921 21.2329 20.5275 22.2088 20.7714L28.1063 22.2458C29.2193 22.524 30 23.524 30 24.6712V26.5C30 28.7091 28.2091 30.5 26 30.5H23C11.402 30.5 2 21.098 2 9.5V6.5Z" fill="white"/>
</svg>
