<svg width="72" height="72" viewBox="0 0 72 72" fill="none" xmlns="http://www.w3.org/2000/svg">
<path d="M11.4912 37.5758C11.4912 34.9662 13.6067 32.8508 16.2162 32.8508C18.8258 32.8508 20.9412 34.9662 20.9412 37.5758V56.4758C20.9412 59.0853 18.8258 61.2008 16.2162 61.2008C13.6067 61.2008 11.4912 59.0853 11.4912 56.4758V37.5758Z" fill="#0B60FE"/>
<path d="M24.0912 37.0508V54.1572C24.0912 56.5434 25.4394 58.7249 27.5738 59.7921L27.7308 59.8706C29.4804 60.7454 31.4096 61.2008 33.3657 61.2008H50.4264C53.4295 61.2008 56.0151 59.0811 56.6041 56.1363L60.3841 37.2363C61.1638 33.3379 58.182 29.7008 54.2064 29.7008H42.9912V17.1008C42.9912 13.6214 40.1706 10.8008 36.6912 10.8008C34.9515 10.8008 33.5412 12.2111 33.5412 13.9508V16.0508C33.5412 18.777 32.657 21.4298 31.0212 23.6108L26.6112 29.4908C24.9755 31.6718 24.0912 34.3245 24.0912 37.0508Z" fill="#0B60FE"/>
</svg>
