<svg width="72" height="72" viewBox="0 0 72 72" fill="none" xmlns="http://www.w3.org/2000/svg">
<path d="M63 41.4V30.6H56.9813C56.5031 28.575 55.7297 26.6625 54.7172 24.9047L58.9078 20.7281L51.2719 13.0922L47.1797 17.1844C45.4078 16.1016 43.4672 15.2859 41.4 14.7516V9H30.6V14.7516C28.5328 15.2859 26.5922 16.1156 24.8203 17.1844L20.7281 13.0922L13.0922 20.7281L17.2828 24.9047C16.2703 26.6625 15.5109 28.575 15.0188 30.6H9V41.4H15.2016C15.7359 43.3266 16.5375 45.1406 17.55 46.8281L13.0922 51.2859L20.7281 58.9219L25.2703 54.3797C26.9156 55.3359 28.7156 56.0531 30.6 56.5453V63.0141H41.4V56.5453C43.2984 56.0531 45.0844 55.3359 46.7297 54.3797L51.2719 58.9219L58.9078 51.2859L54.4641 46.8281C55.4766 45.1547 56.2781 43.3406 56.8125 41.4H63ZM36 43.5656C31.8234 43.5656 28.4484 40.1766 28.4484 36C28.4484 31.8234 31.8234 28.4344 36 28.4344C40.1766 28.4344 43.5656 31.8234 43.5656 36C43.5656 40.1766 40.1766 43.5656 36 43.5656Z" fill="black"/>
</svg>
